<svg width="259" height="162" viewBox="0 0 259 162" fill="none" xmlns="http://www.w3.org/2000/svg">
<mask id="mask0_27_355" style="mask-type:alpha" maskUnits="userSpaceOnUse" x="0" y="0" width="259" height="162">
<path d="M241.69 0H17.5523C8.20147 0 0.621094 7.61564 0.621094 17.01V144.99C0.621094 154.384 8.20147 162 17.5523 162H241.69C251.041 162 258.621 154.384 258.621 144.99V17.01C258.621 7.61564 251.041 0 241.69 0Z" fill="white"/>
</mask>
<g mask="url(#mask0_27_355)">
<path d="M241.69 0H17.5523C8.20147 0 0.621094 7.61564 0.621094 17.01V144.99C0.621094 154.384 8.20147 162 17.5523 162H241.69C251.041 162 258.621 154.384 258.621 144.99V17.01C258.621 7.61564 251.041 0 241.69 0Z" fill="url(#paint0_linear_27_355)"/>
<path style="mix-blend-mode:soft-light" opacity="0.7" fill-rule="evenodd" clip-rule="evenodd" d="M253.784 -48.6C229.726 38.1463 198.256 96.0487 159.375 125.107C120.494 154.165 63.0077 166.058 -13.0852 160.785V-48.6H253.784Z" fill="url(#paint1_linear_27_355)"/>
<g style="mix-blend-mode:overlay" opacity="0.4">
<path fill-rule="evenodd" clip-rule="evenodd" d="M318.284 -48.6C289.138 38.1463 251.013 96.0487 203.91 125.107C156.806 154.165 87.1623 166.058 -5.02267 160.785V-48.6H318.284Z" fill="url(#paint2_linear_27_355)" style="mix-blend-mode:soft-light"/>
</g>
<path style="mix-blend-mode:soft-light" opacity="0.6" fill-rule="evenodd" clip-rule="evenodd" d="M187.998 -78.0658C190.34 -3.01273 177.493 52.5098 149.457 88.5019C121.422 124.494 71.074 153.861 -1.58611 176.602L-61.5374 15.8847L187.998 -78.0658Z" fill="url(#paint3_linear_27_355)"/>
</g>
<defs>
<linearGradient id="paint0_linear_27_355" x1="270.715" y1="-1.76769e-07" x2="-4.01629" y2="9.67603" gradientUnits="userSpaceOnUse">
<stop offset="0.133662" stop-color="#4A5055"/>
<stop offset="1" stop-color="#111318"/>
</linearGradient>
<linearGradient id="paint1_linear_27_355" x1="-20.2495" y1="99.8968" x2="149.587" y2="-77.6053" gradientUnits="userSpaceOnUse">
<stop stop-color="#EEEEEE"/>
<stop offset="1" stop-color="#D8D8D8" stop-opacity="0"/>
</linearGradient>
<linearGradient id="paint2_linear_27_355" x1="-13.7021" y1="99.8968" x2="151.674" y2="-109.495" gradientUnits="userSpaceOnUse">
<stop stop-color="#EEEEEE"/>
<stop offset="1" stop-color="#D8D8D8" stop-opacity="0"/>
</linearGradient>
<linearGradient id="paint3_linear_27_355" x1="-25.7187" y1="132.388" x2="40.4627" y2="-76.868" gradientUnits="userSpaceOnUse">
<stop stop-color="#EEEEEE"/>
<stop offset="1" stop-color="#D8D8D8" stop-opacity="0"/>
</linearGradient>
</defs>
</svg>
